<svg xmlns="http://www.w3.org/2000/svg" viewBox="0 0 64 64" role="img" aria-hidden="true" focusable="false"><rect x="1" y="1" width="62" height="62" rx="15" fill="#2f5647" stroke="#22413a" stroke-width="2"/><path d="M17 12h22l9 9v31a2 2 0 0 1-2 2H17a2 2 0 0 1-2-2V14a2 2 0 0 1 2-2z" fill="#fbf6ef"/><path d="M39 12v7a2 2 0 0 0 2 2h7z" fill="#e6ddd0"/><path d="M32 17l-8 7h2.5v7h11v-7H40z" fill="#d6ac68"/><rect x="30" y="26" width="4" height="5" fill="#fbf6ef"/><rect x="21" y="35" width="22" height="2.4" rx="1.2" fill="#b9ab9a"/><rect x="21" y="40" width="14" height="2.4" rx="1.2" fill="#b9ab9a"/><rect x="21" y="45" width="10" height="2.4" rx="1.2" fill="#b9ab9a"/><circle cx="42" cy="46" r="7" fill="#c9973f" stroke="#a97a2c" stroke-width="1.2"/><circle cx="42" cy="46" r="4" fill="none" stroke="#fbf6ef" stroke-width="1.2"/><path d="M40 46l1.5 1.5L44.5 44" fill="none" stroke="#fbf6ef" stroke-width="1.3" stroke-linecap="round" stroke-linejoin="round"/></svg>